<?xml version="1.0" encoding="utf-8"?>
<!-- Generator: Adobe Illustrator 16.0.0, SVG Export Plug-In . SVG Version: 6.00 Build 0)  -->
<!DOCTYPE svg PUBLIC "-//W3C//DTD SVG 1.1//EN" "http://www.w3.org/Graphics/SVG/1.1/DTD/svg11.dtd">
<svg version="1.1" id="Layer_1" xmlns="http://www.w3.org/2000/svg" xmlns:xlink="http://www.w3.org/1999/xlink" x="0px" y="0px"
	 width="595.28px" height="841.89px" viewBox="0 0 595.28 841.89" enable-background="new 0 0 595.28 841.89" xml:space="preserve">
<path d="M297.06,410.333c-4.779,0-8.667,3.888-8.667,8.667c0,4.779,3.888,8.666,8.667,8.666c1.849,0,3.561-0.586,4.969-1.576
	l1.048,1.048c0.293,0.293,0.677,0.439,1.061,0.439s0.768-0.146,1.061-0.439c0.586-0.586,0.586-1.536,0-2.121l-1.048-1.048
	c0.99-1.408,1.577-3.12,1.577-4.969C305.727,414.221,301.839,410.333,297.06,410.333z M300.986,420.806
	c0.254-0.551,0.405-1.159,0.405-1.806c0-2.392-1.938-4.332-4.332-4.332s-4.332,1.94-4.332,4.332c0,2.392,1.938,4.332,4.332,4.332
	c0.646,0,1.255-0.151,1.806-0.405l1.721,1.721c-1.024,0.642-2.231,1.019-3.526,1.019c-3.676,0-6.667-2.99-6.667-6.666
	c0-3.676,2.991-6.667,6.667-6.667s6.667,2.991,6.667,6.667c0,1.295-0.378,2.502-1.02,3.526L300.986,420.806z"/>
</svg>
